<mxfile host="Electron" modified="2024-02-17T04:14:01.748Z" agent="Mozilla/5.0 (X11; Linux x86_64) AppleWebKit/537.36 (KHTML, like Gecko) draw.io/23.0.2 Chrome/120.0.6099.109 Electron/28.1.0 Safari/537.36" etag="Pcuu5X0eGyiP7War4Q3p" version="23.0.2" type="device">
  <diagram name="Page-1" id="KhwcMyAzXkEJ3nv0tuVu">
    <mxGraphModel dx="1050" dy="633" grid="1" gridSize="10" guides="1" tooltips="1" connect="1" arrows="1" fold="1" page="1" pageScale="1" pageWidth="827" pageHeight="1169" math="0" shadow="0">
      <root>
        <mxCell id="0" />
        <mxCell id="1" parent="0" />
        <mxCell id="lUzNRGHrjq8TbO52k-Gz-19" value="" style="rounded=0;whiteSpace=wrap;html=1;fillColor=#f5f5f5;fontColor=#333333;strokeColor=#666666;" vertex="1" parent="1">
          <mxGeometry x="280" y="70" width="530" height="400" as="geometry" />
        </mxCell>
        <mxCell id="lUzNRGHrjq8TbO52k-Gz-4" style="edgeStyle=orthogonalEdgeStyle;rounded=0;orthogonalLoop=1;jettySize=auto;html=1;exitX=0;exitY=0;exitDx=0;exitDy=0;startArrow=classic;startFill=1;endArrow=none;endFill=0;" edge="1" parent="1" source="lUzNRGHrjq8TbO52k-Gz-3">
          <mxGeometry relative="1" as="geometry">
            <mxPoint x="244" y="197" as="targetPoint" />
            <Array as="points">
              <mxPoint x="244" y="198" />
            </Array>
          </mxGeometry>
        </mxCell>
        <mxCell id="lUzNRGHrjq8TbO52k-Gz-5" style="edgeStyle=orthogonalEdgeStyle;rounded=0;orthogonalLoop=1;jettySize=auto;html=1;exitX=0;exitY=0.5;exitDx=0;exitDy=0;startArrow=classic;startFill=1;endArrow=none;endFill=0;" edge="1" parent="1" source="lUzNRGHrjq8TbO52k-Gz-3">
          <mxGeometry relative="1" as="geometry">
            <mxPoint x="244" y="289.8965517241379" as="targetPoint" />
          </mxGeometry>
        </mxCell>
        <mxCell id="lUzNRGHrjq8TbO52k-Gz-6" style="edgeStyle=orthogonalEdgeStyle;rounded=0;orthogonalLoop=1;jettySize=auto;html=1;exitX=0;exitY=1;exitDx=0;exitDy=0;startArrow=classic;startFill=1;endArrow=none;endFill=0;" edge="1" parent="1" source="lUzNRGHrjq8TbO52k-Gz-3">
          <mxGeometry relative="1" as="geometry">
            <mxPoint x="244" y="382.3103448275863" as="targetPoint" />
            <Array as="points">
              <mxPoint x="300" y="382" />
            </Array>
          </mxGeometry>
        </mxCell>
        <mxCell id="lUzNRGHrjq8TbO52k-Gz-3" value="Arbiter (Any kind, prioritize timing over fairness)" style="ellipse;whiteSpace=wrap;html=1;" vertex="1" parent="1">
          <mxGeometry x="354" y="160" width="60" height="260" as="geometry" />
        </mxCell>
        <mxCell id="lUzNRGHrjq8TbO52k-Gz-8" value="LIMP Requests&lt;br&gt;(MMU,&lt;br&gt;Cachline Replacement, Uncached Access)" style="text;html=1;strokeColor=none;fillColor=none;align=center;verticalAlign=middle;whiteSpace=wrap;rounded=0;" vertex="1" parent="1">
          <mxGeometry x="80" y="280" width="180" height="30" as="geometry" />
        </mxCell>
        <mxCell id="lUzNRGHrjq8TbO52k-Gz-13" style="edgeStyle=orthogonalEdgeStyle;rounded=0;orthogonalLoop=1;jettySize=auto;html=1;exitX=0.31;exitY=0.8;exitDx=0;exitDy=0;exitPerimeter=0;entryX=1;entryY=1;entryDx=0;entryDy=0;" edge="1" parent="1" source="lUzNRGHrjq8TbO52k-Gz-9" target="lUzNRGHrjq8TbO52k-Gz-3">
          <mxGeometry relative="1" as="geometry" />
        </mxCell>
        <mxCell id="lUzNRGHrjq8TbO52k-Gz-14" value="Grant + Read Data" style="edgeLabel;html=1;align=center;verticalAlign=middle;resizable=0;points=[];" vertex="1" connectable="0" parent="lUzNRGHrjq8TbO52k-Gz-13">
          <mxGeometry x="0.277" y="-3" relative="1" as="geometry">
            <mxPoint y="1" as="offset" />
          </mxGeometry>
        </mxCell>
        <mxCell id="lUzNRGHrjq8TbO52k-Gz-15" style="edgeStyle=orthogonalEdgeStyle;rounded=0;orthogonalLoop=1;jettySize=auto;html=1;exitX=0.875;exitY=0.5;exitDx=0;exitDy=0;exitPerimeter=0;startArrow=classic;startFill=1;" edge="1" parent="1" source="lUzNRGHrjq8TbO52k-Gz-9">
          <mxGeometry relative="1" as="geometry">
            <mxPoint x="840" y="275" as="targetPoint" />
            <Array as="points">
              <mxPoint x="760" y="305" />
              <mxPoint x="760" y="275" />
            </Array>
          </mxGeometry>
        </mxCell>
        <mxCell id="lUzNRGHrjq8TbO52k-Gz-16" value="AXI Manager&lt;br&gt;Port To Matrix" style="edgeLabel;html=1;align=center;verticalAlign=middle;resizable=0;points=[];" vertex="1" connectable="0" parent="lUzNRGHrjq8TbO52k-Gz-15">
          <mxGeometry x="0.2256" y="3" relative="1" as="geometry">
            <mxPoint x="111" y="8" as="offset" />
          </mxGeometry>
        </mxCell>
        <mxCell id="lUzNRGHrjq8TbO52k-Gz-9" value="AXI Transaction&lt;br&gt;FSM + RISC-V Size&lt;br&gt;Handling Logic" style="ellipse;shape=cloud;whiteSpace=wrap;html=1;" vertex="1" parent="1">
          <mxGeometry x="520" y="230" width="190" height="150" as="geometry" />
        </mxCell>
        <mxCell id="lUzNRGHrjq8TbO52k-Gz-10" style="edgeStyle=orthogonalEdgeStyle;rounded=0;orthogonalLoop=1;jettySize=auto;html=1;exitX=1;exitY=0;exitDx=0;exitDy=0;entryX=0.25;entryY=0.25;entryDx=0;entryDy=0;entryPerimeter=0;" edge="1" parent="1" source="lUzNRGHrjq8TbO52k-Gz-3" target="lUzNRGHrjq8TbO52k-Gz-9">
          <mxGeometry relative="1" as="geometry" />
        </mxCell>
        <mxCell id="lUzNRGHrjq8TbO52k-Gz-12" value="Selected Request&lt;br&gt;+ Relevant Info&lt;br&gt;(Address, wdata)" style="edgeLabel;html=1;align=center;verticalAlign=middle;resizable=0;points=[];" vertex="1" connectable="0" parent="lUzNRGHrjq8TbO52k-Gz-10">
          <mxGeometry x="-0.1371" relative="1" as="geometry">
            <mxPoint y="-3" as="offset" />
          </mxGeometry>
        </mxCell>
        <mxCell id="lUzNRGHrjq8TbO52k-Gz-18" style="edgeStyle=orthogonalEdgeStyle;rounded=0;orthogonalLoop=1;jettySize=auto;html=1;exitX=1;exitY=0.5;exitDx=0;exitDy=0;startArrow=none;startFill=0;endArrow=none;endFill=0;" edge="1" parent="1" source="lUzNRGHrjq8TbO52k-Gz-17">
          <mxGeometry relative="1" as="geometry">
            <mxPoint x="765" y="275" as="targetPoint" />
            <mxPoint x="695" y="165" as="sourcePoint" />
            <Array as="points">
              <mxPoint x="760" y="170" />
              <mxPoint x="760" y="275" />
            </Array>
          </mxGeometry>
        </mxCell>
        <mxCell id="lUzNRGHrjq8TbO52k-Gz-17" value="Fixed 32-bit access size, burst length of 1, fixed ID, similar modifications" style="whiteSpace=wrap;html=1;aspect=fixed;" vertex="1" parent="1">
          <mxGeometry x="580" y="120" width="100" height="100" as="geometry" />
        </mxCell>
        <mxCell id="lUzNRGHrjq8TbO52k-Gz-20" value="&lt;font style=&quot;font-size: 18px;&quot;&gt;LETC Core AXI FSM&lt;/font&gt;" style="text;html=1;strokeColor=none;fillColor=none;align=center;verticalAlign=middle;whiteSpace=wrap;rounded=0;" vertex="1" parent="1">
          <mxGeometry x="290" y="70" width="170" height="40" as="geometry" />
        </mxCell>
      </root>
    </mxGraphModel>
  </diagram>
</mxfile>
